<svg height="472pt" viewBox="-52 0 472 472" width="472pt" xmlns="http://www.w3.org/2000/svg"><path d="m336 424h-304l14.097656-282c1.0625-21.289062 18.636719-38 39.949219-38h195.90625c21.3125 0 38.886719 16.710938 39.949219 38zm0 0" fill="#fdbd40"/><g fill="#e9686a"><path d="m256 240c0 39.765625-32.234375 72-72 72s-72-32.234375-72-72 32.234375-72 72-72 72 32.234375 72 72zm0 0"/><path d="m330.34375 82.339844 24-24.003906 11.316406 11.3125-24.003906 24.003906zm0 0"/><path d="m2.347656 69.660156 11.316406-11.316406 24 24.003906-11.3125 11.3125zm0 0"/><path d="m176 0h16v40h-16zm0 0"/><path d="m80.847656 19.578125 14.308594-7.15625 16 32-14.308594 7.15625zm0 0"/><path d="m256.84375 44.421875 16-32 14.308594 7.15625-16 32zm0 0"/></g><path d="m290.398438 312.398438-8.445313-168.398438h-41.953125v-16h41.953125c8.53125-.011719 15.570313 6.675781 16 15.199219l8.390625 168.402343zm0 0" fill="#fff"/><path d="m86.046875 128h137.953125v16h-137.953125zm0 0" fill="#fff"/><path d="m0 424h368v48h-368zm0 0" fill="#5a6470"/><path d="m64 376h240v48h-240zm0 0" fill="#f49758"/><path d="m224 240c0 22.089844-17.910156 40-40 40s-40-17.910156-40-40 17.910156-40 40-40 40 17.910156 40 40zm0 0" fill="#fdbd40"/><path d="m168 248h32v128h-32zm0 0" fill="#f49758"/></svg>